<?xml version="1.0" encoding="utf-8"?>
<!-- Generator: Adobe Illustrator 16.0.0, SVG Export Plug-In . SVG Version: 6.00 Build 0)  -->
<!DOCTYPE svg PUBLIC "-//W3C//DTD SVG 1.1//EN" "http://www.w3.org/Graphics/SVG/1.1/DTD/svg11.dtd">
<svg version="1.1" id="Layer_1" xmlns="http://www.w3.org/2000/svg" xmlns:xlink="http://www.w3.org/1999/xlink" x="0px" y="0px"
	 width="504px" height="314px" viewBox="0 0 504 314" enable-background="new 0 0 504 314" xml:space="preserve">
<g>
	<path fill="#FFE167" d="M372.61,60.241c3.119-3.568,7.351-6.683,12.1-8.938l7.42,26.155c-8.99,1.107-16.001-0.781-20.091-3.171
		l-3.111-8.343C369.673,64.21,370.864,62.244,372.61,60.241z"/>
	<rect x="110.372" y="103.641" fill="#F1D867" width="76.461" height="8.894"/>
	<path fill="#5493C7" d="M94.449,83.141v29.394H66.014C69.03,97.978,79.921,86.282,94.449,83.141z"/>
	<path fill="#E96B31" d="M191.798,272.051h-44.884c2.428-4.359,4.424-8.893,5.988-13.693L191.798,272.051z"/>
	<path fill="#5493C7" d="M202.752,112.535V80.666c47.516-13.575,91.528-20.685,134.031-22.289c0,0,10.014-0.169,11.969,0.865
		c1.719,0.909,3.136,6.568,3.136,6.568l7.159,19.235H310.08c-4.384,0-7.938,3.55-7.938,7.932c0,4.388,3.554,7.938,7.938,7.938
		h51.918c0.976,0,1.896-0.201,2.762-0.518l4.518,12.136H204.021L202.752,112.535L202.752,112.535z"/>
	<path fill="#FFE167" d="M248.819,233.76c0-4.396-3.564-7.971-7.957-7.971h-29.801c0,0-16.494-22.959-16.632-22.959l-4.534-6.254
		h72.888c8.058,0,14.713,6.137,15.572,13.975l-23.052,45.596c-3.892,7.689-7.08,13.072-11.38,14.99l-4.239-5.848h1.177
		c4.392,0,7.957-3.574,7.957-7.951c0-4.395-3.564-7.971-7.957-7.971h-12.71l-5.556-7.65h18.267
		C245.254,241.719,248.819,238.139,248.819,233.76z"/>
	<path fill="#FFE167" d="M262.783,180.658h-84.432l-4.965-6.84h37.688c4.402,0,7.97-3.582,7.97-7.969
		c0-4.385-3.567-7.963-7.97-7.963h-46.058c-0.989,0-1.919,0.202-2.787,0.528l-21.705-29.951h54.259h9.238h91.407l-27.015,53.344
		C266.517,181.43,264.772,180.658,262.783,180.658z"/>
	<path fill="#E96B31" d="M219.866,265.07l-63.668-22.418c0.262-2.645,0.805-5.227,0.805-7.936c0-14.221-4.148-27.369-10.909-38.791
		l8.85-20.438L219.866,265.07z"/>
	<path fill="#682657" d="M3.319,234.717c0,42.393,34.471,76.865,76.849,76.865c21.676,0,41.217-9.113,55.189-23.611h105.155
		c16.517,0,24.03-14.809,28.993-24.6l24.014-47.537c0.558-1.092,0.855-2.33,0.855-3.576c0-9.676-4.603-18.008-11.46-23.826
		l30.373-59.973h61.932l5.909,15.922c-33.781,15.896-57.362,49.833-57.362,89.375c0,4.377,3.562,7.961,7.965,7.961h15.399
		c3.763,39.064,36.391,69.83,76.424,69.83c42.524,0,77.127-34.627,77.127-77.172c0-18.812-7.027-35.834-18.242-49.25l10.811-10.875
		c0.014-0.033,0.031-0.033,0.045-0.033c0.933-0.945,1.01-2.213,1.365-3.395c0.235-0.785,0.908-1.434,0.889-2.238
		c0-0.844-0.682-1.502-0.952-2.273c-0.369-1.15-0.462-2.43-1.377-3.326h-0.045c0-0.035,0-0.035,0-0.035
		c-18.71-18.286-43.443-28.335-69.618-28.335c-9.577,0-18.677,1.777-27.452,4.297l-18.006-48.356
		c5.547,0.977,11.681,1.052,17.975,0.028c2.142-0.353,4.303-0.843,6.4-1.432c3.59-1.01,5.693-4.757,4.685-8.349l-11.417-40.255
		c-0.933-3.31-4.202-5.397-7.594-4.843l-0.778,0.17c-9.453,2.673-17.957,7.891-24.174,14.67l-0.101-0.272
		c-0.071-0.361-0.139-0.716-0.267-1.074l-9.864-27.705c-0.632-2.011-3.631-9.944-12.586-14.989c-8.53-4.797-19.421-5.38-32.39-1.698
		c-7.277,2.062-18.26,5.343-29.601,9.986c-4.056,1.66-5.998,6.302-4.341,10.358c1.664,4.05,6.305,5.978,10.355,4.333
		c10.603-4.343,21.006-7.446,27.914-9.406c20.474-5.771,24.838,4.127,25.508,6.184l5.591,15.729
		c-47.76,1.093-97.233,9.244-150.876,25.051c-3.387,0.994-5.708,4.105-5.708,7.635v13.032h-76.46V74.332
		c0-4.402-3.559-7.961-7.971-7.961c-29.581,0-53.64,24.075-53.64,53.656c0,0.093,0.093,0.139,0.093,0.232
		c0,0.095-0.093,0.143-0.093,0.23c0,4.402,3.56,7.966,7.967,7.966h64.133l23.208,32.035l-8.957,20.688
		c-13.955-14.342-33.404-23.299-54.942-23.299C37.792,157.884,3.319,192.355,3.319,234.717z M94.449,112.535H66.014
		c3.017-14.557,13.909-26.254,28.435-29.394V112.535z M396.929,186.783c-14.309,8.053-24.622,22.174-27.296,39.006h-6.459
		c2.789-19.564,14.749-36.02,31.481-45.068L396.929,186.783z M411.751,180.969l-2.258-6.068c4.543-1.059,9.211-1.779,14.062-1.779
		c13.623,0,26.094,4.641,36.27,12.201l-4.558,4.57c-8.955-6.404-19.859-10.295-31.712-10.295
		C419.497,179.598,415.56,180.1,411.751,180.969z M423.555,195.525c7.418,0,13.984,2.648,19.875,6.283l-12.001,12.068
		c-2.474-0.902-5.089-1.586-7.887-1.586c-0.047,0-0.076,0.037-0.108,0.037l-5.802-15.598
		C419.637,196.391,421.458,195.525,423.555,195.525z M462.375,234.379c0,21.43-17.42,38.85-38.82,38.85
		c-18.837,0-33.843-13.717-37.387-31.51h15.909c2.878,9.301,11.23,16.178,21.465,16.178c12.549,0,22.77-10.234,22.77-22.803
		c0-3.885-1.23-7.398-2.977-10.607l11.618-11.693C459.264,219.045,462.375,226.195,462.375,234.379z M402.746,202.428l5.88,15.744
		c-2.423,2.143-4.447,4.633-5.801,7.621h-16.393C388.732,215.934,394.503,207.812,402.746,202.428z M475.753,169.299l-4.714,4.736
		c-13.127-10.367-29.484-16.833-47.484-16.833c-6.81,0-13.298,1.178-19.59,2.831l-2.326-6.25c7.034-1.898,14.282-3.237,21.916-3.237
		C442.825,150.548,460.944,157.357,475.753,169.299z M363.059,241.719h6.452c3.623,26.721,26.347,47.439,54.044,47.439
		c30.188,0,54.748-24.58,54.748-54.779c0-12.604-4.452-24.105-11.632-33.371l4.538-4.584c8.353,10.463,13.548,23.549,13.548,37.955
		c0,33.771-27.453,61.254-61.202,61.254C392.312,295.629,366.728,272.018,363.059,241.719z M386.722,159.373l2.351,6.316
		c-22.734,11.479-38.848,33.721-41.821,60.1h-6.748C343.365,196.551,361.297,171.822,386.722,159.373z M186.831,112.535h-76.46
		v-8.894h76.46V112.535z M372.039,74.287l-3.111-8.343c0.745-1.732,1.938-3.698,3.683-5.7c3.119-3.57,7.349-6.684,12.1-8.938
		l7.42,26.155C383.142,78.563,376.131,76.677,372.039,74.287z M204.021,112.535h-1.269V80.666
		c47.516-13.575,91.528-20.685,134.031-22.289c0,0,10.014-0.169,11.969,0.865c1.719,0.909,3.136,6.568,3.136,6.568l7.159,19.235
		H310.08c-4.384,0-7.938,3.55-7.938,7.932c0,4.388,3.554,7.938,7.938,7.938h51.918c0.976,0,1.896-0.201,2.762-0.518l4.518,12.136
		L204.021,112.535L204.021,112.535z M268.415,181.803c-1.898-0.369-3.643-1.145-5.632-1.145h-84.432l-4.965-6.84h37.688
		c4.402,0,7.97-3.582,7.97-7.969c0-4.385-3.567-7.963-7.97-7.963h-46.058c-0.989,0-1.919,0.202-2.787,0.528l-21.705-29.951h54.259
		h9.238h91.407L268.415,181.803z M222.596,241.719h18.267c4.392,0,7.957-3.584,7.957-7.959c0-4.396-3.564-7.971-7.957-7.971h-29.801
		c0,0-16.494-22.959-16.632-22.959l-4.534-6.254h72.888c8.058,0,14.713,6.137,15.572,13.975l-23.052,45.596
		c-3.892,7.689-7.08,13.072-11.38,14.99l-4.239-5.848h1.177c4.392,0,7.957-3.574,7.957-7.951c0-4.395-3.564-7.971-7.957-7.971
		h-12.71L222.596,241.719z M146.915,272.051c2.429-4.359,4.424-8.893,5.988-13.693l38.896,13.693H146.915z M146.093,195.928
		l8.85-20.439l64.92,89.584l-63.667-22.416c0.263-2.645,0.806-5.229,0.806-7.938C157.002,220.5,152.854,207.348,146.093,195.928z
		 M140.679,238.549l-6.962-1.4c0.03-0.809,0.248-1.596,0.248-2.432c0-2.709-0.404-5.322-0.82-7.93l4.611-10.979
		c1.98,5.967,3.312,12.254,3.312,18.908C141.065,236.027,140.755,237.271,140.679,238.549z M118.771,272.051
		c5.248-5.443,9.253-12.012,11.852-19.262l6.962,1.4c-2.226,6.537-5.46,12.51-9.639,17.861H118.771L118.771,272.051z M56.653,235.09
		c0,12.57,10.212,22.805,22.788,22.805c8.371,0,15.397-4.762,19.356-11.512l16.136,3.232c-5.431,12.656-17.683,21.338-31.996,22.436
		h-1.715c-0.479,0-0.792,0.434-1.252,0.529c-20.781-0.123-37.693-17.023-37.693-37.861c0-20.871,17.005-37.85,37.892-37.85
		c17.762,0,32.011,12.531,36.096,29.049l-2.986,7.111l-11.959-2.385c-2.132-10.359-10.892-18.352-21.877-18.352
		C66.864,212.293,56.653,222.527,56.653,235.09z M19.242,234.717c0-33.588,27.323-60.9,60.926-60.9
		c19.542,0,36.776,9.424,47.933,23.768l-3.127,7.488c-9.638-14.529-26.115-24.137-44.806-24.137
		c-29.674,0-53.811,24.137-53.811,53.781c0,29.674,24.136,53.809,53.811,53.809c1.888,0,3.682-0.369,5.538-0.555h23.441
		c-8.665,4.729-18.442,7.688-28.979,7.688C46.565,295.66,19.242,268.316,19.242,234.717z"/>
</g>
</svg>
