<?xml version="1.0" encoding="utf-8"?>
<!-- Generator: Adobe Illustrator 16.0.0, SVG Export Plug-In . SVG Version: 6.00 Build 0)  -->
<!DOCTYPE svg PUBLIC "-//W3C//DTD SVG 1.1//EN" "http://www.w3.org/Graphics/SVG/1.1/DTD/svg11.dtd">
<svg version="1.1" xmlns="http://www.w3.org/2000/svg" xmlns:xlink="http://www.w3.org/1999/xlink" x="0px" y="0px" width="256px"
	 height="132px" viewBox="0 0 83 43" xml:space="preserve">
<g id="_x33_">
	<g>
		<path fill="#36B698" d="M43.942,19.086c1.497,0.866,4.424,1.832,6.233,1.832c0.425,0,0.645-0.055,0.725-0.055
			c0.008,0,0.017,0,0.021,0.004c-0.039-0.896-2.723-3.77-5.057-5.115c-1.742-1.005-3.866-1.097-4.338-0.28
			c-0.204,0.353-0.125,0.909,0.216,1.519C42.176,17.767,42.977,18.528,43.942,19.086z"/>
		<path fill="#36B698" d="M63.294,20.097h9.551c0.036,0,0.057,0.036,0.093,0.04l0.51-1.607H63.293c0,0.01,0,0.021,0,0.03
			L63.294,20.097z"/>
		<path fill="#FBF8D0" d="M70.565,30.955c-0.086,0.035-0.151,0.102-0.229,0.149l0.151,0.086L70.565,30.955z"/>
		<polygon fill="#FFE167" points="33.321,14.99 36.125,20.097 37.23,22.107 38.207,23.891 38.207,14.894 35.391,13.288 		"/>
		<path fill="#F2733E" d="M41.441,27.833c-0.167-0.208-0.247-0.471-0.22-0.738c0.025-0.263,0.156-0.507,0.363-0.675l2.316-1.889
			c0.436-0.354,1.062-0.291,1.416,0.141l3.061,3.746l3.062-3.746c0.352-0.432,0.986-0.495,1.414-0.141l2.316,1.889
			c0.206,0.168,0.338,0.412,0.363,0.675c0.027,0.267-0.052,0.53-0.22,0.738l-0.756,0.927l1.807-0.009l2.245-2.131l-6.846-3.978
			c-0.422,0.188-0.95,0.287-1.589,0.287c-2.229,0-5.495-1.092-7.24-2.101c-1.166-0.671-2.091-1.582-2.717-2.562v8.939
			c0,0.079-0.065,0.125-0.081,0.196l0.766,1.398l1.323-0.004L41.441,27.833z"/>
		<path fill="#36B698" d="M58.022,22.107l3.898,2.353c0.799-0.907,1.704-1.712,2.718-2.353H58.022z"/>
		<path fill="#FBF8D0" d="M56.134,35.484c0-0.554,0.448-1.001,1.002-1.001h3.024l-0.766-0.75h-7.167
			c-0.554,0-1.002-0.448-1.002-1.001c0-0.554,0.448-1.002,1.002-1.002h5.121l-0.988-0.968l-14.355,0.043l3.606,6.565h13.746
			l1.779-0.885h-4.001C56.582,36.486,56.134,36.038,56.134,35.484z"/>
		<path fill="#672557" d="M81.364,1.411c-0.526-0.169-1.096,0.11-1.272,0.636l-3.457,10.65c-0.081-0.058-0.118-0.153-0.217-0.185
			c-0.533-0.173-1.095,0.12-1.266,0.646l-1.069,3.368H62.95c-0.438,0-0.84,0.17-1.134,0.481c-0.54,0.572-0.538,1.41-0.526,1.598
			v1.492h-4.74c-0.556,0-1.006,0.452-1.006,1.005v1.292c0,0.051,0.029,0.094,0.037,0.141l-2.691-1.562
			c0.01-0.22,0.025-0.436-0.051-0.718c-0.595-2.213-4.148-5.195-5.971-6.244c-2.348-1.366-5.011-1.341-6.419-0.153l-3.398-1.938
			l9.696-7.976c0.284-0.217,1.088-0.832,1.333-1.037c0.887-0.743,1.456-0.818,2.102-0.274C51.729,3.94,53.681,5.75,53.7,5.768
			c0.193,0.179,0.438,0.268,0.682,0.267c0.269,0,0.537-0.107,0.734-0.32c0.377-0.406,0.354-1.04-0.053-1.416
			c-0.081-0.075-2.005-1.859-3.589-3.197c-0.977-0.824-2.56-1.446-4.588,0.196c-0.082,0.022-0.165,0.061-0.246,0.133l-11.992,9.861
			l-0.004,0.002l-0.609,0.502L19.717,23.573c-0.17-0.175-0.346-0.347-0.527-0.514c-2.599-2.394-6.107-3.621-9.638-3.37
			C9,19.729,8.585,20.208,8.624,20.76c0.04,0.552,0.515,0.96,1.071,0.928c3.02-0.212,5.91,0.794,8.137,2.845
			c0.113,0.104,0.211,0.22,0.318,0.328l-1.062,0.874c-1.755-1.731-4.154-2.803-6.809-2.803c-5.345,0-9.695,4.351-9.695,9.703
			c0,5.348,4.351,9.699,9.695,9.699c5.353,0,9.702-4.351,9.702-9.699c0-1.976-0.601-3.809-1.617-5.344l1.084-0.892
			c1.429,2.081,2.09,4.598,1.838,7.188c-0.053,0.542-0.146,1.081-0.278,1.604c-0.136,0.537,0.189,1.081,0.727,1.216
			c0.082,0.021,0.164,0.031,0.245,0.031c0.448,0,0.856-0.303,0.971-0.758c0.157-0.619,0.268-1.258,0.33-1.899
			c0.305-3.128-0.517-6.167-2.28-8.659l10.742-8.836l12.393,22.573c0.177,0.322,0.515,0.522,0.882,0.522h14.576
			c0.155,0,0.308-0.036,0.447-0.106l3.078-1.529c0.361,0.571,0.776,1.103,1.246,1.584c0.003,0.007,0.003,0.014,0.009,0.02
			c0.005,0.004,0.01,0.005,0.016,0.006c0.331,0.338,0.691,0.646,1.069,0.932c1.639,1.273,3.683,2.045,5.915,2.045
			c5.348,0,9.698-4.351,9.698-9.699c0-4.029-2.466-7.484-5.964-8.953L82,2.683C82.175,2.157,81.89,1.588,81.364,1.411z
			 M10.279,40.323c-4.237,0-7.685-3.448-7.685-7.688c0-4.241,3.447-7.692,7.685-7.692c2.025,0,3.855,0.801,5.234,2.089l-0.746,0.609
			c-1.194-1.072-2.757-1.748-4.488-1.748c-3.715,0-6.734,3.023-6.734,6.742c0,3.715,3.02,6.738,6.734,6.738
			c3.718,0,6.742-3.023,6.742-6.738c0-1.261-0.369-2.427-0.974-3.44l0.742-0.609c0.738,1.178,1.182,2.56,1.182,4.049
			C17.972,36.875,14.52,40.323,10.279,40.323z M10.188,35.16c1.367,0,2.482-1.115,2.482-2.481c0-0.212-0.071-0.404-0.122-0.604
			l1.9-1.559c0.33,0.644,0.562,1.347,0.562,2.121c0,2.607-2.124,4.728-4.731,4.728c-2.604,0-4.725-2.121-4.725-4.728
			c0-2.607,2.121-4.732,4.725-4.732c1.1,0,2.065,0.436,2.87,1.068l-1.85,1.523c-0.338-0.173-0.706-0.295-1.111-0.295
			c-1.366,0-2.478,1.112-2.478,2.478S8.822,35.16,10.188,35.16z M76.169,32.602c0,2.702-2.198,4.901-4.9,4.901
			c-1.568,0-2.964-0.744-3.861-1.895l0.941-0.464c0.713,0.848,1.742,1.417,2.934,1.417c2.14,0,3.88-1.743,3.88-3.883
			c0-1.425-0.807-2.619-1.954-3.294l0.369-1.102C75.118,29.109,76.169,30.734,76.169,32.602z M68.479,30.023l-0.952-0.577
			c0.899-1.065,2.242-1.745,3.742-1.745c0.13,0,0.257,0.01,0.383,0.02l-0.369,1.077C70.173,28.799,69.186,29.277,68.479,30.023z
			 M70.565,30.955l-0.078,0.235l-0.151-0.086C70.414,31.057,70.479,30.99,70.565,30.955z M71.498,33.578
			c0.027-0.012,0.039-0.043,0.064-0.059c0.063-0.036,0.104-0.09,0.159-0.142c0.091-0.086,0.165-0.177,0.219-0.294
			c0.015-0.031,0.053-0.051,0.064-0.086l0.556-1.668c0.359,0.341,0.591,0.816,0.591,1.351c0,1.033-0.838,1.873-1.869,1.873
			c-0.391,0-0.732-0.149-1.032-0.354L71.498,33.578z M72.315,25.787c-0.343-0.052-0.69-0.088-1.047-0.088
			c-2.226,0-4.203,1.063-5.467,2.704l-0.637-0.386c1.396-1.854,3.609-3.061,6.104-3.061c0.441,0,0.87,0.046,1.291,0.118
			L72.315,25.787z M66.568,31.229l1.003,0.594c-0.039,0.155-0.1,0.353-0.1,0.655c0,0.224,0.018,0.618,0.055,0.833l-1.001,0.498
			c-0.099-0.387-0.157-0.79-0.157-1.206C66.368,32.125,66.44,31.665,66.568,31.229z M73.447,18.529l-0.51,1.607
			c-0.036-0.004-0.057-0.04-0.093-0.04h-9.551l-0.001-1.538c0-0.009,0-0.02,0-0.03H73.447z M41.527,15.472
			c0.472-0.817,2.596-0.725,4.338,0.28c2.334,1.345,5.018,4.219,5.057,5.115c-0.005-0.004-0.014-0.004-0.021-0.004
			c-0.08,0-0.3,0.055-0.725,0.055c-1.81,0-4.736-0.966-6.233-1.832c-0.966-0.558-1.767-1.319-2.199-2.095
			C41.402,16.38,41.323,15.825,41.527,15.472z M38.207,23.891l-0.977-1.783l-1.105-2.01l-2.804-5.107l2.069-1.702l2.816,1.606
			V23.891z M40.138,27.401c0.016-0.071,0.081-0.118,0.081-0.196v-8.939c0.626,0.98,1.551,1.891,2.717,2.562
			c1.745,1.009,5.011,2.101,7.24,2.101c0.639,0,1.167-0.098,1.589-0.287l6.846,3.978l-2.245,2.131l-1.807,0.009l0.756-0.927
			c0.168-0.208,0.247-0.471,0.22-0.738c-0.025-0.263-0.157-0.507-0.363-0.675l-2.316-1.889c-0.428-0.354-1.062-0.291-1.414,0.141
			l-3.062,3.746l-3.061-3.746c-0.354-0.432-0.98-0.495-1.416-0.141l-2.316,1.889c-0.207,0.168-0.338,0.412-0.363,0.675
			c-0.027,0.267,0.053,0.53,0.22,0.738l0.785,0.962l-1.323,0.004L40.138,27.401z M59.357,37.371H45.611l-3.606-6.565l14.355-0.043
			l0.988,0.968h-5.121c-0.554,0-1.002,0.448-1.002,1.002c0,0.553,0.448,1.001,1.002,1.001h7.167l0.766,0.75h-3.024
			c-0.554,0-1.002,0.448-1.002,1.001c0,0.553,0.448,1.001,1.002,1.001h4.001L59.357,37.371z M61.646,33.125l-3.428-3.356
			l2.207-2.097l1.97,1.144c-0.498,1.164-0.776,2.443-0.776,3.786C61.618,32.778,61.636,32.95,61.646,33.125z M61.921,24.46
			l-3.898-2.353h6.616C63.625,22.748,62.72,23.553,61.921,24.46z M62.731,26.689c2.135-3.074,5.824-4.813,9.549-4.527l-0.211,0.648
			c-0.021,0.063,0.019,0.12,0.015,0.183c-0.044-0.003-0.089-0.003-0.134-0.006c-0.191-0.022-0.381-0.055-0.577-0.055
			c-0.538,0-1.06,0.059-1.572,0.144c-0.246,0.038-0.49,0.082-0.729,0.138c-0.055,0.014-0.109,0.028-0.163,0.042
			c-2.269,0.574-4.219,1.946-5.529,3.807L62.731,26.689z M64.698,34.715l-0.668,0.332c-0.26-0.769-0.408-1.589-0.408-2.445
			c0-0.988,0.195-1.931,0.538-2.799l0.649,0.384c-0.283,0.753-0.445,1.564-0.445,2.415C64.364,33.339,64.483,34.048,64.698,34.715z
			 M78.915,32.602c0,4.216-3.431,7.646-7.646,7.646c-2.65,0-4.988-1.356-6.36-3.411l0.672-0.331c1.246,1.81,3.33,3,5.688,3
			c3.808,0,6.904-3.097,6.904-6.904c0-2.75-1.621-5.124-3.954-6.232l0.237-0.709C77.083,26.872,78.915,29.524,78.915,32.602z"/>
	</g>
	<rect id="_x3C_Slice_x3E_" fill="none" width="83" height="43"/>
</g>
</svg>
